<svg xmlns="http://www.w3.org/2000/svg" viewBox="0 0 536.47 603.92"><path fill="#5a8dff" d="M268.5,603.92l-20.91-9.38c-52.32-23.47-92.73-49.8-135.59-87.15l-4.73-4.12c-11.43-9.96-21.23-20.67-30.91-32.29-27.54-33.04-48.51-70.17-60.28-111.6-6.77-23.85-10.93-47.15-13.25-71.67l-2.51-26.52-.24-13.23-.07-157.57c38.42-5.4,74.93-13.75,111.72-23.56l32.28-10.16c43.05-14.96,84.19-33.91,124.25-56.66,27.33,15.02,54.88,28.48,83.72,40.65,47.68,20.13,96.79,33.9,147.61,43.15l36.88,6.54-.1,85.75-.77,85.38c-.26,28.47-3.73,56.26-11.57,83.52l-5.79,20.14c-12.87,44.76-39.64,86.03-71.1,119.91-31.24,33.64-69.83,61.49-109.55,84.35-22.43,12.91-45,23.23-69.08,34.52Z"/></svg>
